<svg width="60" height="60" viewBox="0 0 60 60" fill="none" xmlns="http://www.w3.org/2000/svg">
<g clip-path="url(#clip0_1_42)">
<path d="M23.3335 52.3804C23.2084 52.3803 23.0845 52.405 22.969 52.4528C22.8534 52.5007 22.7484 52.5708 22.66 52.6592C22.5715 52.7477 22.5014 52.8527 22.4535 52.9683C22.4057 53.0838 22.3811 53.2077 22.3811 53.3328V53.4849C22.3811 53.9763 21.9979 54.3931 21.5078 54.434L13.0778 55.1366C12.5206 55.1826 11.9891 55.3913 11.5494 55.7368C11.1098 56.0823 10.7813 56.5493 10.6048 57.0799L10.0496 58.7456C10.0018 58.8888 9.98878 59.0413 10.0115 59.1905C10.0342 59.3397 10.092 59.4813 10.1802 59.6038C10.2684 59.7263 10.3844 59.8261 10.5187 59.8949C10.653 59.9638 10.8017 59.9998 10.9527 59.9999C11.1525 59.9998 11.3472 59.9368 11.5093 59.8199C11.6714 59.703 11.7926 59.538 11.8557 59.3484L12.4109 57.6827C12.4699 57.5058 12.5795 57.3502 12.7262 57.235C12.8729 57.1198 13.0501 57.0503 13.2359 57.0349L13.8098 56.9871V59.0471C13.8098 59.5731 14.2358 59.9995 14.7622 59.9995C15.2886 59.9995 15.7146 59.5731 15.7146 59.0471V56.8284L16.7984 56.7381L17.6685 59.3485C17.7317 59.5382 17.8528 59.7031 18.0149 59.82C18.177 59.9369 18.3717 59.9999 18.5716 60C18.7225 59.9999 18.8712 59.9639 19.0055 59.8951C19.1398 59.8262 19.2559 59.7264 19.344 59.6039C19.4322 59.4815 19.49 59.3398 19.5127 59.1906C19.5354 59.0414 19.5224 58.8889 19.4746 58.7457L18.7511 56.5752L21.6658 56.3323C23.1353 56.2099 24.2857 54.9591 24.2857 53.485V53.3329C24.2858 53.2078 24.2612 53.0839 24.2134 52.9683C24.1655 52.8528 24.0954 52.7478 24.007 52.6593C23.9185 52.5708 23.8135 52.5007 23.698 52.4528C23.5824 52.405 23.4585 52.3803 23.3335 52.3804ZM36.6665 52.3804C36.7916 52.3803 36.9155 52.405 37.031 52.4528C37.1466 52.5007 37.2516 52.5708 37.34 52.6592C37.4285 52.7477 37.4986 52.8527 37.5465 52.9683C37.5943 53.0838 37.6189 53.2077 37.6189 53.3328V53.4849C37.6189 53.9763 38.0021 54.3931 38.4922 54.434L46.9222 55.1366C47.4794 55.1826 48.0109 55.3913 48.4506 55.7368C48.8902 56.0823 49.2187 56.5493 49.3952 57.0799L49.9504 58.7456C49.9982 58.8888 50.0112 59.0413 49.9885 59.1905C49.9658 59.3397 49.908 59.4813 49.8198 59.6038C49.7316 59.7263 49.6156 59.8261 49.4813 59.8949C49.347 59.9638 49.1983 59.9998 49.0474 59.9999C48.8475 59.9998 48.6528 59.9368 48.4907 59.8199C48.3286 59.703 48.2074 59.538 48.1443 59.3484L47.5891 57.6827C47.5301 57.5058 47.4205 57.3502 47.2738 57.235C47.1272 57.1198 46.9499 57.0503 46.7641 57.0349L46.1902 56.9871V59.0471C46.1902 59.5731 45.7642 59.9995 45.2378 59.9995C44.7114 59.9995 44.2855 59.5731 44.2855 59.0471V56.8284L43.2016 56.7381L42.3315 59.3485C42.2683 59.5382 42.1472 59.7031 41.9851 59.82C41.823 59.9369 41.6283 59.9999 41.4284 60C41.2775 59.9999 41.1288 59.9639 40.9945 59.8951C40.8602 59.8262 40.7442 59.7264 40.656 59.6039C40.5678 59.4815 40.51 59.3398 40.4873 59.1906C40.4646 59.0414 40.4776 58.8889 40.5254 58.7457L41.2489 56.5752L38.3342 56.3323C36.8647 56.2099 35.7143 54.9591 35.7143 53.485V53.3329C35.7142 53.2078 35.7388 53.0839 35.7866 52.9683C35.8345 52.8528 35.9046 52.7478 35.993 52.6593C36.0815 52.5708 36.1865 52.5007 36.302 52.4528C36.4176 52.405 36.5415 52.3803 36.6665 52.3804Z" fill="#B19F91"/>
<path d="M30 56.19C42.6238 56.19 52.8573 45.7434 52.8573 32.8569C52.8573 19.9704 42.6238 9.5238 30 9.5238C17.3762 9.5238 7.14267 19.9704 7.14267 32.8569C7.14267 45.7434 17.3762 56.19 30 56.19Z" fill="#AB4539"/>
<path d="M30 54.2857C38.4156 54.2857 45.2378 45.1182 45.2378 33.8096C45.2378 22.501 38.4156 13.3335 30 13.3335C21.5844 13.3335 14.7621 22.501 14.7621 33.8096C14.7621 45.1182 21.5844 54.2857 30 54.2857Z" fill="#C85349"/>
<path d="M55.714 16.1903L52.6838 19.2205C52.7937 18.539 52.8569 17.8465 52.8569 17.1427C52.8569 7.67505 42.6235 0 30 0C17.3765 0 7.14313 7.67505 7.14313 17.1427C7.14313 17.8465 7.20629 18.539 7.31621 19.2205L4.28599 16.1903C4.28599 16.1903 0.841278 24.802 0.503193 30.5609C0.475537 31.0309 0.845965 31.4282 1.31682 31.4282H3.33361V33.5345C3.3337 33.7414 3.41247 33.9406 3.55396 34.0916C3.69545 34.2426 3.88906 34.3342 4.09556 34.3477C6.3193 34.4963 13.0794 34.7099 19.9517 32.5413C19.5239 32.3804 30 27.6185 30 27.6185C30 27.6185 39.5237 32.3804 40.0483 32.5413C46.9206 34.7097 53.6807 34.4962 55.9044 34.3477C56.1109 34.3342 56.3045 34.2426 56.446 34.0916C56.5875 33.9406 56.6663 33.7414 56.6664 33.5345V31.4282H58.6832C59.154 31.4282 59.5244 31.0308 59.4968 30.5609C59.1587 24.802 55.714 16.1903 55.714 16.1903Z" fill="#C85349"/>
<path d="M52.6021 7.34589C55.8414 5.52914 56.989 2.99204 57.3956 1.42466C57.5513 0.82455 56.9704 0.313263 56.3854 0.518575C49.0783 3.08356 37.1796 -0.615561 31.2084 9.49838C30.6604 10.4266 29.3398 10.4266 28.7918 9.49838C22.8204 -0.615561 10.9217 3.08356 3.61476 0.518692C3.02976 0.31338 2.44875 0.824667 2.60449 1.42478C3.01113 2.99204 4.15886 5.52926 7.39803 7.34601C7.95795 7.66007 8.06951 8.41065 7.61142 8.86053C4.61003 11.8078 2.90215 16.0671 3.42832 20.7131C4.16284 27.2 9.38165 32.456 15.8641 33.2284C21.8807 33.9452 27.2637 30.9162 30.0001 26.1689C32.7367 30.9162 38.1197 33.9452 44.1362 33.2284C50.6186 32.456 55.8374 27.2 56.5719 20.7131C57.098 16.0671 55.3902 11.8078 52.3888 8.86053C51.9306 8.41054 52.0421 7.65995 52.6021 7.34589Z" fill="#AB4539"/>
<path d="M17.6192 28.5715C22.8791 28.5715 27.1431 24.3075 27.1431 19.0476C27.1431 13.7878 22.8791 9.5238 17.6192 9.5238C12.3594 9.5238 8.0954 13.7878 8.0954 19.0476C8.0954 24.3075 12.3594 28.5715 17.6192 28.5715Z" fill="#B19F91"/>
<path d="M17.6192 25.7142C21.301 25.7142 24.2858 22.7295 24.2858 19.0477C24.2858 15.3658 21.301 12.3811 17.6192 12.3811C13.9374 12.3811 10.9526 15.3658 10.9526 19.0477C10.9526 22.7295 13.9374 25.7142 17.6192 25.7142Z" fill="#F9F1E6"/>
<path d="M30.6243 33.5732L32.5168 28.5264C32.6183 28.2558 32.6397 27.9616 32.5785 27.6791C32.5173 27.3966 32.3761 27.1377 32.1717 26.9333L31.3468 26.1085C30.6029 25.3646 29.3969 25.3646 28.6532 26.1085L27.8283 26.9333C27.6239 27.1377 27.4827 27.3966 27.4215 27.6791C27.3603 27.9616 27.3817 28.2557 27.4832 28.5264L29.3757 33.5732C29.5921 34.15 30.4079 34.15 30.6243 33.5732Z" fill="#F9F1E6"/>
<path d="M17.6192 23.8092C15.5152 23.8092 13.8097 22.1037 13.8097 19.9997V18.0949C13.8097 15.9911 15.5152 14.2854 17.6192 14.2854C19.7231 14.2854 21.4287 15.9909 21.4287 18.0949V19.9997C21.4287 22.1037 19.7232 23.8092 17.6192 23.8092Z" fill="#301816"/>
<path d="M18.095 19.0476C18.8839 19.0476 19.5235 18.408 19.5235 17.6191C19.5235 16.8301 18.8839 16.1906 18.095 16.1906C17.306 16.1906 16.6664 16.8301 16.6664 17.6191C16.6664 18.408 17.306 19.0476 18.095 19.0476Z" fill="#F9F1E6"/>
<path d="M42.3808 28.5715C47.6407 28.5715 51.9046 24.3075 51.9046 19.0476C51.9046 13.7878 47.6407 9.5238 42.3808 9.5238C37.121 9.5238 32.857 13.7878 32.857 19.0476C32.857 24.3075 37.121 28.5715 42.3808 28.5715Z" fill="#B19F91"/>
<path d="M42.3808 25.7142C46.0627 25.7142 49.0474 22.7295 49.0474 19.0477C49.0474 15.3658 46.0627 12.3811 42.3808 12.3811C38.699 12.3811 35.7143 15.3658 35.7143 19.0477C35.7143 22.7295 38.699 25.7142 42.3808 25.7142Z" fill="#F9F1E6"/>
<path d="M42.3808 23.8092C40.2768 23.8092 38.5713 22.1037 38.5713 19.9997V18.0949C38.5713 15.9911 40.2768 14.2854 42.3808 14.2854C44.4847 14.2854 46.1904 15.9909 46.1904 18.0949V19.9997C46.1904 22.1037 44.4847 23.8092 42.3808 23.8092Z" fill="#301816"/>
<path d="M42.8566 19.0476C43.6455 19.0476 44.2851 18.408 44.2851 17.6191C44.2851 16.8301 43.6455 16.1906 42.8566 16.1906C42.0676 16.1906 41.4281 16.8301 41.4281 17.6191C41.4281 18.408 42.0676 19.0476 42.8566 19.0476Z" fill="#F9F1E6"/>
</g>
<defs>
<clipPath id="clip0_1_42">
<rect width="60" height="60" fill="white"/>
</clipPath>
</defs>
</svg>
